<?xml version="1.0" encoding="UTF-8"?>
<svg version="1.1" xmlns="http://www.w3.org/2000/svg" width="400" height="400">
<path d="M0 0 C132 0 264 0 400 0 C400 132 400 264 400 400 C268 400 136 400 0 400 C0 268 0 136 0 0 Z " fill="#333E48" transform="translate(0,0)"/>
<path d="M0 0 C6.03768087 4.38867986 9.62031185 9.9559296 10.81640625 17.3203125 C11.70177641 27.07378054 12.12535936 37.71359743 6.81640625 46.3203125 C2.27400131 51.53601754 -2.44302374 54.89114082 -9.41796875 55.69140625 C-10.578125 55.71332031 -11.73828125 55.73523438 -12.93359375 55.7578125 C-14.0834375 55.79777344 -15.23328125 55.83773437 -16.41796875 55.87890625 C-21.39432457 55.14071239 -24.96966206 52.97172793 -29.18359375 50.3203125 C-29.17835693 51.10269287 -29.17312012 51.88507324 -29.16772461 52.69116211 C-29.14702269 56.21337083 -29.13395537 59.7355668 -29.12109375 63.2578125 C-29.11271484 64.48951172 -29.10433594 65.72121094 -29.09570312 66.99023438 C-29.09248047 68.16005859 -29.08925781 69.32988281 -29.0859375 70.53515625 C-29.08070068 71.61917725 -29.07546387 72.70319824 -29.07006836 73.82006836 C-29.18359375 76.3203125 -29.18359375 76.3203125 -30.18359375 77.3203125 C-31.68097499 77.4182182 -33.18302267 77.45006114 -34.68359375 77.4453125 C-35.49828125 77.44789063 -36.31296875 77.45046875 -37.15234375 77.453125 C-39.18359375 77.3203125 -39.18359375 77.3203125 -40.18359375 76.3203125 C-40.2838507 73.95269675 -40.3197831 71.61424177 -40.31298828 69.24609375 C-40.3147406 68.50628265 -40.31649292 67.76647156 -40.31829834 67.00424194 C-40.32271685 64.54707527 -40.31977888 62.08997997 -40.31640625 59.6328125 C-40.31707929 57.93269843 -40.31804932 56.23258445 -40.31930542 54.5324707 C-40.32078239 50.96467169 -40.31862786 47.39689767 -40.31396484 43.82910156 C-40.30826755 39.24542756 -40.31154656 34.66181211 -40.31753731 30.07814026 C-40.32114294 26.56611689 -40.32000432 23.05410752 -40.31740952 19.54208374 C-40.31674025 17.85151157 -40.31756864 16.16093814 -40.31988907 14.47036743 C-40.32241564 12.11172093 -40.31857496 9.75317055 -40.31298828 7.39453125 C-40.31501251 6.68904144 -40.31703674 5.98355164 -40.31912231 5.25668335 C-40.29785646 0.43457521 -40.29785646 0.43457521 -39.18359375 -0.6796875 C-36.51300524 -0.82083911 -33.85927137 -0.72215857 -31.18359375 -0.6796875 C-30.52359375 0.6403125 -29.86359375 1.9603125 -29.18359375 3.3203125 C-28.5803125 2.97097656 -27.97703125 2.62164062 -27.35546875 2.26171875 C-26.55625 1.80667969 -25.75703125 1.35164062 -24.93359375 0.8828125 C-23.75023437 0.20412109 -23.75023437 0.20412109 -22.54296875 -0.48828125 C-15.43690327 -4.07660901 -6.89679865 -3.984817 0 0 Z " fill="#F9F9FA" transform="translate(162.18359375,136.6796875)"/>
<path d="M0 0 C3.24689614 1.26544229 6.39382545 2.63230326 9.51953125 4.171875 C27.99091378 13.18572729 45.88334846 19.63820224 66 24 C66.82999512 24.18224121 67.65999023 24.36448242 68.51513672 24.55224609 C104.52199638 32.05212049 147.51843469 28.21598657 181.05859375 13.265625 C184.26969343 11.88395661 186.54112618 11.74691167 190 12 C190.33 13.32 190.66 14.64 191 16 C174.60685855 30.57168129 151.26013982 38.25997082 130 42 C128.09734375 42.33837891 128.09734375 42.33837891 126.15625 42.68359375 C106.49103062 45.6293136 87.31542969 44.4215572 68 40 C67.29552734 39.84515137 66.59105469 39.69030273 65.86523438 39.53076172 C43.42040556 34.51897131 22.62088151 23.64305097 5 9 C4.44248047 8.53674316 3.88496094 8.07348633 3.31054688 7.59619141 C1.87199685 6.39950286 0.43577379 5.20001804 -1 4 C-0.67 2.68 -0.34 1.36 0 0 Z " fill="#F2951D" transform="translate(96,222)"/>
<path d="M0 0 C2.95663181 2.59502936 4.74519916 5.23559747 6 9 C6.08650584 10.48844716 6.11770173 11.98048257 6.11352539 13.47143555 C6.11344986 14.37214279 6.11337433 15.27285004 6.11329651 16.20085144 C6.10813522 17.16968765 6.10297394 18.13852386 6.09765625 19.13671875 C6.0962413 20.13129593 6.09482635 21.12587311 6.09336853 22.15058899 C6.08776761 25.32958982 6.07521496 28.50852043 6.0625 31.6875 C6.05748512 33.84179586 6.05292219 35.99609282 6.04882812 38.15039062 C6.03779787 43.43362084 6.02053262 48.71679851 6 54 C3.03 54 0.06 54 -3 54 C-3.66 52.68 -4.32 51.36 -5 50 C-5.68707031 50.34933594 -6.37414062 50.69867188 -7.08203125 51.05859375 C-8.43361328 51.74115234 -8.43361328 51.74115234 -9.8125 52.4375 C-10.70582031 52.88996094 -11.59914062 53.34242188 -12.51953125 53.80859375 C-18.40194874 56.63400687 -24.07565037 57.01227487 -30.25 54.875 C-34.08084349 52.26306126 -36.90161815 49.19676371 -39 45 C-39.55674965 39.04706147 -39.54141118 34.02651909 -36 29 C-31.24766518 24.01298197 -27.8375294 22.16329912 -20.87890625 21.8671875 C-19.78449219 21.86976563 -18.69007813 21.87234375 -17.5625 21.875 C-16.47066406 21.87242187 -15.37882812 21.86984375 -14.25390625 21.8671875 C-11.08807476 21.99640511 -8.10964455 22.40902683 -5 23 C-5.08715017 21.06166004 -5.19532964 19.1242571 -5.3125 17.1875 C-5.37050781 16.10855469 -5.42851562 15.02960938 -5.48828125 13.91796875 C-6.03714089 10.78821187 -6.49884491 9.85888316 -9 8 C-16.23315742 4.38342129 -27.44793793 7.50029973 -35 9 C-35 6.36 -35 3.72 -35 1 C-24.14067558 -3.30628382 -10.82813188 -5.97872312 0 0 Z " fill="#F8F9F9" transform="translate(220,137)"/>
<path d="M0 0 C1.60184626 -0.1352403 3.20696626 -0.23210847 4.8125 -0.3125 C5.70582031 -0.37050781 6.59914062 -0.42851562 7.51953125 -0.48828125 C10 0 10 0 11.50878906 2.15283203 C13.03673271 5.07013374 14.21695059 7.94776847 15.33984375 11.04296875 C15.9750293 12.77836914 15.9750293 12.77836914 16.62304688 14.54882812 C17.05681641 15.74958984 17.49058594 16.95035156 17.9375 18.1875 C20.84408779 26.17516929 23.79139598 34.12825354 27 42 C27.41362793 40.79875488 27.82725586 39.59750977 28.25341797 38.35986328 C29.78694824 33.91120988 31.32809644 29.46522767 32.87158203 25.02001953 C33.53903573 23.09431006 34.20441045 21.16787872 34.86767578 19.24072266 C35.82040839 16.47366816 36.78054338 13.70928056 37.7421875 10.9453125 C38.03809784 10.0806839 38.33400818 9.2160553 38.6388855 8.32522583 C38.91902496 7.52454681 39.19916443 6.7238678 39.48779297 5.89892578 C39.73206024 5.1927713 39.97632751 4.48661682 40.22799683 3.75906372 C41 2 41 2 43 0 C45.3828125 -0.1953125 45.3828125 -0.1953125 48.125 -0.125 C49.03507812 -0.10695312 49.94515625 -0.08890625 50.8828125 -0.0703125 C51.58148438 -0.04710937 52.28015625 -0.02390625 53 0 C52.37198333 5.90102162 50.18746419 11.03150347 47.9921875 16.48828125 C47.58847931 17.50488327 47.18477112 18.52148529 46.76882935 19.56889343 C45.47644294 22.81900728 44.17573801 26.06572089 42.875 29.3125 C42.02291427 31.45356789 41.17134674 33.59484208 40.3203125 35.73632812 C38.27152296 40.88583442 36.20727006 46.02895079 34.1361084 51.16949463 C33.06877035 53.82866525 32.01388339 56.49243557 30.96191406 59.15771484 C30.35259372 60.68211816 29.74291946 62.20638009 29.1328125 63.73046875 C28.87047821 64.40443192 28.60814392 65.07839508 28.33786011 65.77278137 C25.9280947 71.73475125 22.95460087 76.27411604 17 79 C13.95703125 79.36328125 13.95703125 79.36328125 10.8125 79.3125 C9.76707031 79.30863281 8.72164062 79.30476563 7.64453125 79.30078125 C5 79 5 79 3 77 C2.875 73.375 2.875 73.375 3 70 C3.67546875 69.97421875 4.3509375 69.9484375 5.046875 69.921875 C10.54878023 69.64146888 10.54878023 69.64146888 15.4375 67.375 C19.26146712 61.56256998 20.39701411 57.82872443 19 51 C18.05927433 48.13083317 16.92682533 45.35875221 15.76171875 42.57421875 C15.43967972 41.78658646 15.11764069 40.99895416 14.7858429 40.18745422 C13.76049485 37.68433904 12.72429126 35.18589403 11.6875 32.6875 C11.00251489 31.02178862 10.31826344 29.35577534 9.63476562 27.68945312 C6.15764049 19.20601993 6.15764049 19.20601993 2.62744141 10.74462891 C2.26183105 9.86597168 1.8962207 8.98731445 1.51953125 8.08203125 C1.06670776 7.01239136 1.06670776 7.01239136 0.60473633 5.92114258 C0 4 0 4 0 0 Z " fill="#F8F9F9" transform="translate(233,136)"/>
<path d="M0 0 C4.45228436 2.22614218 6.86733733 4.51018386 9 9 C11.15770849 15.56365869 11.35495464 25.70342813 8.75 32.1875 C6.62438233 35.60367126 4.63148182 38.18425909 1 40 C-1.05765396 40.1755481 -3.12286464 40.26735838 -5.1875 40.3125 C-6.29480469 40.34988281 -7.40210938 40.38726562 -8.54296875 40.42578125 C-12 40 -12 40 -19 36 C-19 25.77 -19 15.54 -19 5 C-6.36585366 -1.31707317 -6.36585366 -1.31707317 0 0 Z " fill="#36414B" transform="translate(152,143)"/>
<path d="M0 0 C0.96588174 13.62966452 -3.41486669 24.28598669 -12.1875 34.5625 C-14 36 -14 36 -17 36 C-15.95650735 30.78253676 -14.65678468 25.89179799 -12.875 20.875 C-11.30048343 16.3147335 -10.56433677 12.7922955 -11 8 C-13.71401294 6.64299353 -15.84846316 6.8876139 -18.8828125 6.90234375 C-20.63271484 6.90717773 -20.63271484 6.90717773 -22.41796875 6.91210938 C-23.64128906 6.92048828 -24.86460937 6.92886719 -26.125 6.9375 C-27.35605469 6.94201172 -28.58710938 6.94652344 -29.85546875 6.95117188 C-32.90369392 6.9629867 -35.95182314 6.97945972 -39 7 C-38.6875 5.1328125 -38.6875 5.1328125 -38 3 C-27.27487926 -4.59696053 -11.78472373 -5.65666739 0 0 Z " fill="#EF941D" transform="translate(305,221)"/>
<path d="M0 0 C0.72380859 0.01417969 1.44761719 0.02835938 2.19335938 0.04296875 C7.44134852 0.18942426 7.44134852 0.18942426 9.8125 1.375 C10.15951096 5.1021548 10.33713302 8.65974164 9.8125 12.375 C4.96745592 16.9998148 -0.5646554 17.81112949 -7.05859375 17.71484375 C-9.1875 17.375 -9.1875 17.375 -11.75 15.3125 C-13.56531677 11.60293965 -13.84372237 9.45816143 -13.1875 5.375 C-9.36453696 0.28263611 -6.06745898 -0.31847296 0 0 Z " fill="#35404A" transform="translate(205.1875,166.625)"/>
</svg>
