<?xml version="1.0" encoding="UTF-8"?>
<svg version="1.1" xmlns="http://www.w3.org/2000/svg" width="240" height="240">
<path d="M0 0 C79.2 0 158.4 0 240 0 C240 79.2 240 158.4 240 240 C160.8 240 81.6 240 0 240 C0 160.8 0 81.6 0 0 Z " fill="#FEFEFD" transform="translate(0,0)"/>
<path d="M0 0 C3.18937111 1.24135468 5.99988134 2.67693621 8.95947266 4.39111328 C10.05904297 5.02404297 11.15861328 5.65697266 12.29150391 6.30908203 C13.48033115 7.00044502 14.66913251 7.69185251 15.85791016 8.38330078 C17.10627579 9.1039288 18.35498014 9.82397032 19.60400391 10.54345703 C22.19679192 12.03761025 24.78810898 13.53426834 27.37841797 15.03271484 C33.31638711 18.4649228 39.27596986 21.85915946 45.23291016 25.25830078 C46.36656006 25.90702148 47.50020996 26.55574219 48.66821289 27.22412109 C54.16326395 30.36858252 59.66250821 33.50489544 65.17575073 36.61737061 C67.7945685 38.0963683 70.41116399 39.57927252 73.02758789 41.0625 C74.28201163 41.7721482 75.53753534 42.47985577 76.79418945 43.18554688 C78.5303942 44.16069152 80.26261766 45.1429146 81.99462891 46.12548828 C82.98422607 46.68349121 83.97382324 47.24149414 84.9934082 47.81640625 C87.23291016 49.25830078 87.23291016 49.25830078 88.23291016 51.25830078 C87.60126953 51.60908691 86.96962891 51.95987305 86.31884766 52.32128906 C61.1088144 65.93544637 61.1088144 65.93544637 36.74169922 80.93725586 C33.85233507 82.45869897 32.45034731 82.73081539 29.23291016 82.25830078 C26.54150391 81.02075195 26.54150391 81.02075195 23.67041016 79.30126953 C22.10419922 78.37411133 22.10419922 78.37411133 20.50634766 77.42822266 C19.42611328 76.77402344 18.34587891 76.11982422 17.23291016 75.44580078 C16.15267578 74.80320312 15.07244141 74.16060547 13.95947266 73.49853516 C5.63923024 68.54234137 5.63923024 68.54234137 2.69775391 66.48608398 C0.32285407 65.0502682 0.32285407 65.0502682 -2.23266602 65.39038086 C-5.13346133 66.38376563 -7.64210173 67.64424323 -10.31787109 69.14501953 C-11.39633301 69.74644775 -12.47479492 70.34787598 -13.5859375 70.9675293 C-14.75064083 71.62668365 -15.9151876 72.2861147 -17.07958984 72.94580078 C-18.2934152 73.62707364 -19.50744825 74.30797656 -20.72167969 74.98852539 C-29.47629189 79.90823117 -38.15716184 84.95196156 -46.81591797 90.03833008 C-61.63819873 98.73103144 -76.67812004 107.03939691 -91.76708984 115.25830078 C-92.16270399 106.95710544 -92.46381083 98.65989697 -92.64789677 90.35157967 C-92.73630701 86.49221097 -92.85588077 82.63932507 -93.04956055 78.78369141 C-94.26072425 54.01912882 -94.26072425 54.01912882 -90.24707031 47.96585083 C-86.37409641 44.38655418 -81.92116366 42.62263236 -76.95761108 41.01855469 C-73.7829999 39.91675731 -71.07462313 38.22485551 -68.22802734 36.45751953 C-66.19997786 35.28591373 -64.17132699 34.11534833 -62.14208984 32.94580078 C-61.0416333 32.3111792 -59.94117676 31.67655762 -58.80737305 31.02270508 C-50.61046287 26.30305814 -42.38696803 21.63203398 -34.14672852 16.98852539 C-26.49226629 12.6746312 -18.86077153 8.32147229 -11.23852539 3.95092773 C-10.00549683 3.24456177 -10.00549683 3.24456177 -8.74755859 2.52392578 C-8.02463623 2.10916992 -7.30171387 1.69441406 -6.55688477 1.26708984 C-2.92011533 -0.78271664 -2.92011533 -0.78271664 0 0 Z " fill="#F4A031" transform="translate(121.76708984375,17.74169921875)"/>
<path d="M0 0 C0.39561415 8.30119534 0.69672098 16.59840382 0.88080692 24.90672112 C0.96921717 28.76608981 1.08879093 32.61897571 1.2824707 36.47460938 C2.49264781 61.22137883 2.49264781 61.22137883 -1.50894165 67.28741455 C-5.37184955 70.8700223 -9.82630987 72.62232147 -14.78268433 74.22796631 C-18.09193685 75.38019487 -20.81151113 77.08428466 -23.80078125 78.9140625 C-25.97071085 80.15216984 -28.14129506 81.38913052 -30.3125 82.625 C-31.50234433 83.30335159 -32.69212117 83.98182159 -33.88183594 84.66040039 C-35.72622022 85.71232831 -37.57066627 86.76414668 -39.41537476 87.81550598 C-44.38295355 90.64677169 -49.34695161 93.4842593 -54.30888367 96.32540894 C-57.30105125 98.038334 -60.29478107 99.74837281 -63.29272461 101.45117188 C-68.26090845 104.2757375 -73.21537418 107.10964255 -78.1015625 110.07421875 C-78.83922852 110.51386963 -79.57689453 110.95352051 -80.33691406 111.40649414 C-81.63812616 112.18444689 -82.93033069 112.97780788 -84.20996094 113.79077148 C-85.8984375 114.7890625 -85.8984375 114.7890625 -89 116 C-93.29584092 114.89645409 -96.90338274 113.08154969 -100.7265625 110.8671875 C-101.82613281 110.23425781 -102.92570312 109.60132813 -104.05859375 108.94921875 C-105.24742099 108.25785576 -106.43622235 107.56644827 -107.625 106.875 C-108.87336563 106.15437198 -110.12206998 105.43433046 -111.37109375 104.71484375 C-113.96388176 103.22069053 -116.55519882 101.72403245 -119.14550781 100.22558594 C-125.08347696 96.79337798 -131.04305971 93.39914133 -137 90 C-138.1336499 89.3512793 -139.2672998 88.70255859 -140.43530273 88.03417969 C-145.9303538 84.88971826 -151.42959806 81.75340534 -156.94284058 78.64093018 C-159.56165834 77.16193248 -162.17825383 75.67902826 -164.79467773 74.19580078 C-166.04910147 73.48615258 -167.30462519 72.77844501 -168.5612793 72.07275391 C-170.29748404 71.09760926 -172.0297075 70.11538618 -173.76171875 69.1328125 C-174.75131592 68.57480957 -175.74091309 68.01680664 -176.76049805 67.44189453 C-179 66 -179 66 -180 64 C-179.36835938 63.64921387 -178.73671875 63.29842773 -178.0859375 62.93701172 C-152.75325398 49.51156464 -152.75325398 49.51156464 -128.57128906 34.25854492 C-125.17490794 32.59614987 -123.60287576 32.95209823 -120 34 C-116.91967773 35.47460937 -116.91967773 35.47460937 -113.68359375 37.34375 C-113.10464859 37.67290405 -112.52570343 38.00205811 -111.92921448 38.34118652 C-110.09361542 39.38561724 -108.26504743 40.44155249 -106.4375 41.5 C-104.60598552 42.55767249 -102.77306809 43.61243775 -100.93507385 44.65881348 C-99.26963517 45.60725096 -97.61010758 46.5660461 -95.95092773 47.52539062 C-93.13253318 48.93377179 -91.136929 49.8228923 -88 50 C-85.53821976 49.09280457 -85.53821976 49.09280457 -83.140625 47.52734375 C-81.73393555 46.68333008 -81.73393555 46.68333008 -80.29882812 45.82226562 C-79.29271484 45.20029297 -78.28660156 44.57832031 -77.25 43.9375 C-75.07941189 42.6319726 -72.90749532 41.32865179 -70.734375 40.02734375 C-69.61869141 39.35558105 -68.50300781 38.68381836 -67.35351562 37.99169922 C-62.12780849 34.88807962 -56.81660028 31.94426276 -51.5 29 C-40.11129617 22.66441435 -28.8544658 16.11678635 -17.61132812 9.52734375 C-13.93694735 7.37822949 -10.25409867 5.24438668 -6.5625 3.125 C-5.49128906 2.50882812 -4.42007813 1.89265625 -3.31640625 1.2578125 C-1 0 -1 0 0 0 Z " fill="#D01424" transform="translate(210,107)"/>
<path d="M0 0 C0.66 0.33 1.32 0.66 2 1 C1.030625 1.61875 0.06125 2.2375 -0.9375 2.875 C-4.02835362 4.65678846 -4.02835362 4.65678846 -5 7 C-4.236875 7.268125 -3.47375 7.53625 -2.6875 7.8125 C-0.12619116 8.94424112 1.19692938 9.91223401 3 12 C-1.61513112 10.68139111 -5.09897612 8.78644563 -9 6 C-3.30379747 1.25316456 -3.30379747 1.25316456 0 0 Z " fill="#A70C17" transform="translate(39,166)"/>
</svg>
